<?xml version="1.0" encoding="utf-8"?>
<!-- Generator: Adobe Illustrator 21.0.0, SVG Export Plug-In . SVG Version: 6.00 Build 0)  -->
<svg version="1.1" id="Layer_1" xmlns="http://www.w3.org/2000/svg" xmlns:xlink="http://www.w3.org/1999/xlink" x="0px" y="0px"
	 viewBox="0 0 512 512" style="enable-background:new 0 0 512 512;" xml:space="preserve">
<style type="text/css">
	.st0{fill:#54C092;}
	.st1{fill:#1B7D53;}
	.st2{fill:#FFEDB5;}
	.st3{fill:#FEE187;}
	.st4{fill:#FFC61B;}
	.st5{fill:#EAA22F;}
	.st6{fill:#FF7F4F;}
	.st7{fill:#D35933;}
	.st8{fill:#B54324;}
</style>
<circle class="st0" cx="256" cy="256" r="256"/>
<path class="st1" d="M304.8,507.3c114.9-22.2,202.4-121.1,207-241.4L399.6,153.7l-47.6,59l-149.1,23.4l-59.3-59.3l-19.5,11
	l54.1,54.1L49.9,252.5L304.8,507.3z"/>
<path class="st2" d="M131,180.9l14.7,5.6c9,3.4,18.7,4.9,28.3,4.4l72.6-4.1l134.1,117.7c5.2,4.5,4.9,12.7-0.6,16.8l-2.2,1.7
	c-3.9,3-9.4,2.9-13.2-0.2l-95.7-76c-1.5-1.2-3.7-1.1-5.1,0.3l-1.5,1.5c-1.6,1.6-1.5,4.2,0.3,5.7l76.4,63c5,4.2,5.3,11.8,0.5,16.3
	l0,0c-3.9,3.6-9.8,3.9-14,0.7l-81-61.8c-1.6-1.2-4-1-5.3,0.6l0,0c-1.4,1.7-1.1,4.2,0.6,5.5l64.9,50.1c5.7,4.4,5.6,13-0.2,17.3
	l-0.6,0.4c-3.8,2.8-9.1,2.8-12.9,0l-66.1-49.4c-1.6-1.2-3.9-0.9-5.2,0.6l0,0c-1.4,1.7-1.1,4.2,0.6,5.5l44.9,34.1
	c5,3.8,5.7,11.1,1.6,15.8l-1.6,1.8c-3.4,3.9-9.1,4.8-13.5,2.2L89.9,263.2L131,180.9z"/>
<path class="st3" d="M89.9,263.2l161.9,93.6c4.5,2.6,10.1,1.7,13.5-2.2l1.6-1.8c4.2-4.7,3.5-12-1.6-15.8l-44.9-34.1
	c-1.7-1.3-2-3.8-0.6-5.5l0,0c1.3-1.6,3.6-1.8,5.2-0.6l66.1,49.4c3.8,2.9,9.1,2.9,12.9,0l0.6-0.4c0.1-0.1,0.2-0.2,0.3-0.2
	L120.2,202.6L89.9,263.2z"/>
<path class="st4" d="M390.8,174l44.1,81.4L372.2,297l-102.9-89.7l-64.4,24.9c-5.6,2.2-11.9,1-16.4-2.9l0,0
	c-8.6-7.6-6.6-21.6,3.8-26.5l85.7-40.6c3.9-1.8,8.3-1.8,12.2,0l50.9,24.3c5.6,2.7,12,3,17.9,1L390.8,174z"/>
<polygon class="st5" points="330.7,260.9 372.2,297 434.9,255.4 411.4,212 "/>
<rect x="41.3" y="191.2" transform="matrix(0.47 -0.8827 0.8827 0.47 -138.2348 199.1536)" class="st6" width="110.8" height="47"/>
<g>
	<polygon class="st7" points="49.9,252.5 91.5,274.6 117.8,225.2 77.1,201.5 	"/>
	
		<rect x="387.9" y="157.4" transform="matrix(0.8256 -0.5643 0.5643 0.8256 -48.2884 269.2575)" class="st7" width="47" height="110.8"/>
</g>
<polygon class="st8" points="462.1,245.2 431.2,200 390.9,224.4 423.2,271.7 "/>
</svg>
