<?xml version="1.0" encoding="utf-8"?>
<!-- Generator: Adobe Illustrator 21.0.0, SVG Export Plug-In . SVG Version: 6.00 Build 0)  -->
<svg version="1.1" id="Layer_1" xmlns="http://www.w3.org/2000/svg" xmlns:xlink="http://www.w3.org/1999/xlink" x="0px" y="0px"
	 viewBox="0 0 512 512" style="enable-background:new 0 0 512 512;" xml:space="preserve">
<style type="text/css">
	.st0{fill:#54C092;}
	.st1{fill:#1B7D53;}
	.st2{fill:#FF9970;}
	.st3{fill:#A64924;}
	.st4{fill:#FFC61B;}
	.st5{fill:#FEE187;}
	.st6{fill:#EAA22F;}
	.st7{fill:#E09112;}
	.st8{fill:#FFEDB5;}
</style>
<circle class="st0" cx="256" cy="256" r="256"/>
<path class="st1" d="M283.5,510.5C411.9,496.8,512,388.1,512,256c0-46.4-12.4-90-34-127.5L383.5,34L341,144.3L202.3,5.7l0,0
	l-5.3,176l82.5,82.5l-108.9,11.6l76.1,76.1l-2,0.7l-87-87l-4.2,3.8l0.1,0.1l-2.1,2.2l83.9,83.9l-37.5,12.3l-56.7-56.7l-2.3,0.3
	l-0.5-0.5l-20.9,2.2l39.9,39.9l-17,14.7L283.5,510.5z"/>
<path class="st2" d="M127.9,34.3l72.8,257h84.4L202.3,5.7C175.8,11.3,150.7,21.1,127.9,34.3z"/>
<path class="st3" d="M229.7,291.2h80.8l73-257.3c-21.9-12.6-45.8-22-71.1-27.7L229.7,291.2z"/>
<path class="st4" d="M390.5,315.5h-15.5c-2.4,0-4.3-1.9-4.3-4.3s1.9-4.3,4.3-4.3h15.5c2.4,0,4.3,1.9,4.3,4.3
	S392.8,315.5,390.5,315.5z"/>
<path class="st5" d="M137.1,315.5h-15.5c-2.4,0-4.3-1.9-4.3-4.3s1.9-4.3,4.3-4.3h15.5c2.4,0,4.3,1.9,4.3,4.3
	S139.5,315.5,137.1,315.5z"/>
<path class="st4" d="M368.3,369c-1.1,0-2.2-0.4-3-1.3l-11-11c-1.7-1.7-1.7-4.4,0-6.1s4.4-1.7,6.1,0l11,11c1.7,1.7,1.7,4.4,0,6.1
	C370.5,368.6,369.4,369,368.3,369z"/>
<path class="st5" d="M154.7,273c-1.1,0-2.2-0.4-3-1.3l-11-11c-1.7-1.7-1.7-4.4,0-6.1c1.7-1.7,4.4-1.7,6.1,0l11,11
	c1.7,1.7,1.7,4.4,0,6.1C156.9,272.5,155.8,273,154.7,273z"/>
<path class="st4" d="M357.3,273c-1.1,0-2.2-0.4-3-1.3c-1.7-1.7-1.7-4.4,0-6.1l11-11c1.7-1.7,4.4-1.7,6.1,0c1.7,1.7,1.7,4.4,0,6.1
	l-11,11C359.5,272.5,358.4,273,357.3,273z"/>
<path class="st5" d="M143.7,369c-1.1,0-2.2-0.4-3-1.3c-1.7-1.7-1.7-4.4,0-6.1l11-11c1.7-1.7,4.4-1.7,6.1,0s1.7,4.4,0,6.1l-11,11
	C145.9,368.6,144.8,369,143.7,369z"/>
<rect x="170.7" y="218.9" class="st6" width="170.7" height="56.9"/>
<rect x="256.3" y="218.9" class="st7" width="85" height="56.9"/>
<circle class="st8" cx="256" cy="312.9" r="85.3"/>
<path class="st5" d="M341.3,312.9c0-47-38-85.2-85-85.3v170.7C303.3,398.1,341.3,359.9,341.3,312.9z"/>
<circle class="st4" cx="256" cy="312.9" r="56.9"/>
<path class="st6" d="M312.9,312.9c0-31.3-25.3-56.7-56.6-56.9v113.8C287.6,369.6,312.9,344.2,312.9,312.9z"/>
</svg>
