<?xml version="1.0" encoding="utf-8"?>
<!-- Generator: Adobe Illustrator 21.0.0, SVG Export Plug-In . SVG Version: 6.00 Build 0)  -->
<svg version="1.1" id="Layer_1" xmlns="http://www.w3.org/2000/svg" xmlns:xlink="http://www.w3.org/1999/xlink" x="0px" y="0px"
	 viewBox="0 0 512 512" style="enable-background:new 0 0 512 512;" xml:space="preserve">
<style type="text/css">
	.st0{fill:#54C092;}
	.st1{fill:#1B7D53;}
	.st2{fill:#FFC61B;}
	.st3{fill:#EAA22F;}
	.st4{fill:#FEE187;}
	.st5{fill:#E09112;}
	.st6{fill:#FF5419;}
	.st7{fill:#C92F00;}
</style>
<circle class="st0" cx="256" cy="256" r="256"/>
<path class="st1" d="M260.3,511.9c132.5-2.2,240.5-105.1,250.9-235.5L373.4,138.6l-50.2,68.6L218,102.1L196,131l88.5,88.5
	l-47.9,42.7l-71-71L100.1,216l93.2,92.6l-53.3,83.2L260.3,511.9z"/>
<path class="st2" d="M267.7,396.9V241.1h-133v138.4c0,9.6,7.8,17.5,17.5,17.5h27.5c3.6,0,5.8-4.1,3.7-7c-2.7-3.7-4.3-8.2-4.3-13.1
	c0-12.6,10.5-22.8,23.3-22.1c11.3,0.6,20.5,9.9,21,21.2c0.2,5.3-1.4,10.2-4.3,14.1c-2.1,2.9,0.1,7,3.7,7L267.7,396.9z"/>
<path class="st3" d="M201.4,241.1v113.6c0.3,0,0.6,0,0.9,0c11.3,0.6,20.5,9.9,21,21.2c0.2,5.3-1.4,10.2-4.3,14.1
	c-2.1,2.9,0.1,7,3.7,7h45V241.1H201.4z"/>
<path class="st4" d="M223.2,134v133h138.4c9.6,0,17.5-7.8,17.5-17.5V222c0-3.6-4.1-5.8-7-3.7c-3.7,2.7-8.2,4.3-13.1,4.3
	c-12.6,0-22.8-10.5-22.1-23.3c0.6-11.3,9.9-20.5,21.2-21c5.3-0.2,10.2,1.4,14.1,4.3c2.9,2.1,7-0.1,7-3.7v-27.5
	c0-9.6-7.8-17.5-17.5-17.5H223.2z"/>
<path class="st2" d="M357.9,178.4c5.3-0.2,10.2,1.4,14.1,4.3c2.9,2.1,7-0.1,7-3.7v-27.5c0-9.6-7.8-17.5-17.5-17.5h-49.2v133h49.2
	c9.6,0,17.5-7.8,17.5-17.5V222c0-3.6-4.1-5.8-7-3.7c-3.7,2.7-8.2,4.3-13.1,4.3c-12.6,0-22.8-10.5-22.1-23.3
	C337.3,188.1,346.6,178.8,357.9,178.4z"/>
<path class="st3" d="M246.6,178.4c5.3-0.2,10.2,1.4,14.1,4.3c2.9,2.1,7-0.1,7-3.7v-27.5c0-9.6-7.8-17.5-17.5-17.5h-25.8
	c-3.4,0-5.6-3.7-3.9-6.6c2.2-3.9,3.2-8.4,2.7-13.3c-1.1-10.2-9.3-18.5-19.5-19.6c-13.4-1.5-24.7,9-24.7,22c0,3.9,1,7.7,2.9,10.9
	c1.7,3-0.5,6.6-3.9,6.6h-25.8c-9.6,0-17.5,7.8-17.5,17.5v26.6c0,3.6-3.9,5.7-6.9,3.7c-3.8-2.4-8.4-3.8-13.4-3.4
	c-11.1,0.7-20.1,9.9-20.7,21c-0.6,12.7,9.5,23.2,22.1,23.2c4.4,0,8.5-1.3,12-3.5c2.9-1.9,6.8,0.3,6.8,3.8v26.6
	c0,9.6,7.8,17.5,17.5,17.5h98c9.6,0,17.5-7.8,17.5-17.5V222c0-3.6-4.1-5.8-7-3.7c-3.7,2.7-8.2,4.3-13.1,4.3
	c-12.6,0-22.8-10.5-22.1-23.3C226,188.1,235.3,178.8,246.6,178.4z"/>
<path class="st5" d="M246.6,178.4c5.3-0.2,10.2,1.4,14.1,4.3c2.9,2.1,7-0.1,7-3.7v-27.5c0-9.6-7.8-17.5-17.5-17.5h-25.8
	c-3.4,0-5.6-3.7-3.9-6.6c2.2-3.9,3.2-8.4,2.7-13.3c-1.1-10.2-9.3-18.5-19.5-19.6c-0.8-0.1-1.5-0.1-2.3-0.1V267h48.8
	c9.6,0,17.5-7.8,17.5-17.5V222c0-3.6-4.1-5.8-7-3.7c-3.7,2.7-8.2,4.3-13.1,4.3c-12.6,0-22.8-10.5-22.1-23.3
	C226,188.1,235.3,178.8,246.6,178.4z"/>
<path class="st6" d="M334.3,375.8c0.2,5.3-1.4,10.2-4.3,14.1c-2.1,2.9,0.1,7,3.7,7h27.5c9.6,0,17.5-7.8,17.5-17.5v-25.8
	c0-3.4,3.7-5.6,6.6-3.9c3.9,2.2,8.4,3.2,13.3,2.7c10.2-1.1,18.5-9.3,19.6-19.5c1.5-13.4-9-24.7-22-24.7c-3.9,0-7.7,1-10.9,2.9
	c-3,1.7-6.6-0.5-6.6-3.9v-25.8c0-9.6-7.8-17.5-17.5-17.5h-26.6c-3.5,0-5.7-3.9-3.7-6.9c2.4-3.8,3.8-8.4,3.4-13.4
	c-0.7-11.1-9.9-20.1-21-20.7c-12.7-0.6-23.2,9.5-23.2,22.1c0,4.4,1.3,8.5,3.5,12c1.9,2.9-0.3,6.8-3.8,6.8h-26.6
	c-9.6,0-17.5,7.8-17.5,17.5v98c0,9.6,7.8,17.5,17.5,17.5h27.5c3.6,0,5.8-4.1,3.7-7c-2.7-3.7-4.3-8.2-4.3-13.1
	c0-12.6,10.5-22.8,23.3-22.1C324.6,355.2,333.8,364.5,334.3,375.8z"/>
<path class="st7" d="M396.1,308.3c-3.9,0-7.7,1-10.9,2.9c-3,1.7-6.6-0.5-6.6-3.9v-25.8c0-9.6-7.8-17.5-17.5-17.5h-26.6
	c-3.5,0-5.7-3.9-3.7-6.9c2.4-3.8,3.8-8.4,3.4-13.4c-0.7-11.1-9.9-20.1-21-20.7c-0.1,0-0.2,0-0.3,0v131.6c0.1,0,0.2,0,0.4,0
	c11.3,0.6,20.5,9.9,21,21.2c0.2,5.3-1.4,10.2-4.3,14.1c-2.1,2.9,0.1,7,3.7,7h27.5c9.6,0,17.5-7.8,17.5-17.5v-25.8
	c0-3.4,3.7-5.6,6.6-3.9c3.9,2.2,8.4,3.2,13.3,2.7c10.2-1.1,18.5-9.3,19.6-19.5C419.6,319.6,409.2,308.3,396.1,308.3z"/>
</svg>
