<?xml version="1.0" encoding="iso-8859-1"?>
<!-- Generator: Adobe Illustrator 19.0.0, SVG Export Plug-In . SVG Version: 6.00 Build 0)  -->
<svg version="1.1" id="Capa_1" xmlns="http://www.w3.org/2000/svg" xmlns:xlink="http://www.w3.org/1999/xlink" x="0px" y="0px"
	 viewBox="0 0 512 512" style="enable-background:new 0 0 512 512;" xml:space="preserve">
<circle style="fill:#662E57;" cx="256" cy="256" r="256"/>
<path style="fill:#590F38;" d="M270.635,511.574C405.209,503.988,512,392.472,512,256c0-5.689-0.206-11.33-0.571-16.927
	l-90.768-90.768L106.486,300.024l105.332,105.332l-31.133,16.268L270.635,511.574z"/>
<path style="fill:#60C344;" d="M226.865,236.245c-1.184-6.454-1.807-13.104-1.807-19.901c0-29.673,11.794-56.588,30.942-76.326
	c-19.926-20.54-47.816-33.309-78.693-33.309c-60.55,0-109.635,49.085-109.635,109.635c0,50.461,34.093,92.952,80.5,105.714
	C155.776,280.591,186.709,247.287,226.865,236.245z"/>
<path style="fill:#00BAFF;" d="M444.328,216.344c0-60.55-49.085-109.635-109.635-109.635c-30.877,0-58.767,12.769-78.693,33.309
	c19.149,19.739,30.942,46.653,30.942,76.326c0,6.796-0.623,13.447-1.807,19.901c40.156,11.043,71.088,44.346,78.693,85.813
	C410.235,309.296,444.328,266.804,444.328,216.344z"/>
<g>
	<path style="fill:#B9EAFF;" d="M226.865,236.245c9.278-2.552,19.046-3.922,29.135-3.922s19.857,1.37,29.135,3.922
		c1.184-6.454,1.807-13.104,1.807-19.901c0-29.673-11.793-56.588-30.942-76.326c-19.149,19.739-30.942,46.653-30.942,76.326
		C225.058,223.14,225.681,229.79,226.865,236.245z"/>
	<path style="fill:#B9EAFF;" d="M225.058,216.344c0,6.796,0.623,13.447,1.807,19.901c9.264-2.548,19.016-3.917,29.088-3.921v-92.256
		C236.832,159.802,225.058,186.695,225.058,216.344z"/>
</g>
<path style="fill:#35CCFF;" d="M256,140.017c-0.016,0.016-0.031,0.034-0.048,0.05v92.256c0.016,0,0.032-0.001,0.048-0.001
	c10.089,0,19.857,1.37,29.135,3.922c1.183-6.454,1.807-13.104,1.807-19.901C286.942,186.67,275.149,159.756,256,140.017z"/>
<path style="fill:#F1333F;" d="M256,292.67c-19.926,20.54-47.816,33.309-78.693,33.309c-10.089,0-19.857-1.37-29.135-3.921
	c-1.184,6.454-1.807,13.104-1.807,19.901c0,60.55,49.085,109.635,109.635,109.635s109.635-49.085,109.635-109.635
	c0-6.796-0.623-13.446-1.807-19.901c-9.278,2.552-19.046,3.921-29.135,3.921C303.816,325.979,275.926,313.21,256,292.67z"/>
<path style="fill:#AE283F;" d="M363.828,322.058c-9.278,2.552-19.046,3.921-29.135,3.921c-30.877,0-58.767-12.769-78.693-33.309
	c-0.016,0.016-0.032,0.032-0.048,0.048v158.875c0.016,0,0.032,0,0.048,0c60.55,0,109.635-49.085,109.635-109.635
	C365.635,335.162,365.012,328.512,363.828,322.058z"/>
<path style="fill:#FFDC00;" d="M256,292.67c-14.763-15.218-25.151-34.7-29.135-56.426c-40.156,11.043-71.088,44.346-78.693,85.813
	c9.278,2.552,19.046,3.921,29.135,3.921C208.184,325.979,236.074,313.21,256,292.67z"/>
<path style="fill:#FF81AE;" d="M285.135,236.245c-3.984,21.725-14.372,41.208-29.135,56.426
	c19.926,20.54,47.816,33.309,78.693,33.309c10.089,0,19.857-1.37,29.135-3.921C356.224,280.591,325.292,247.287,285.135,236.245z"/>
<path style="fill:#FFFFFF;" d="M226.865,236.245c3.984,21.725,14.372,41.208,29.135,56.426c14.763-15.218,25.151-34.7,29.135-56.426
	c-9.279-2.552-19.046-3.922-29.135-3.922C245.911,232.323,236.143,233.693,226.865,236.245z"/>
<path style="fill:#E0E0E0;" d="M285.135,236.245c-9.279-2.552-19.046-3.922-29.135-3.922c-0.016,0-0.032,0.001-0.048,0.001v60.296
	c0.016,0.017,0.031,0.034,0.048,0.051C270.763,277.452,281.151,257.97,285.135,236.245z"/>
<g>
</g>
<g>
</g>
<g>
</g>
<g>
</g>
<g>
</g>
<g>
</g>
<g>
</g>
<g>
</g>
<g>
</g>
<g>
</g>
<g>
</g>
<g>
</g>
<g>
</g>
<g>
</g>
<g>
</g>
</svg>
