<?xml version="1.0" encoding="utf-8"?>
<!-- Generator: Adobe Illustrator 21.0.0, SVG Export Plug-In . SVG Version: 6.00 Build 0)  -->
<svg version="1.1" id="Layer_1" xmlns="http://www.w3.org/2000/svg" xmlns:xlink="http://www.w3.org/1999/xlink" x="0px" y="0px"
	 viewBox="0 0 505 505" style="enable-background:new 0 0 505 505;" xml:space="preserve">
<style type="text/css">
	.st0{fill:#FD8469;}
	.st1{fill:#F44427;}
	.st2{fill:#324A5E;}
	.st3{fill:#E6E9EE;}
	.st4{fill:#CED5E0;}
</style>
<circle class="st0" cx="252.5" cy="252.5" r="252.5"/>
<path class="st1" d="M240.5,505c23.5,0.9,82.6,0.1,143.4-36.9c23.5-14.3,73.4-49.7,101.1-115.1c11-25.9,15.4-49.3,17.3-65.8
	c-37.3-48.5-74.5-97-111.8-145.4c13.7,34.3,26,77.9,6.6,97.7c-19.5,20-59.6,3.8-103.2-1.4c-49-5.9-120,0.1-213,55
	c33.6,35.3,67.1,70.5,100.7,105.8c-18.9-7.6-37.8-15.2-56.7-22.8C163.5,419,202,462,240.5,505z"/>
<path class="st2" d="M252.5,75C154.4,75,75,154.5,75,252.5C75,350.6,154.5,430,252.5,430S430,350.6,430,252.5S350.6,75,252.5,75z
	 M284.7,376l-14-75.3h-36.3l-14,75.3c-2.2,11.6-14.5,18.6-25.4,14c-35.7-14.9-64.3-43.3-79.5-78.8c-4.2-9.7,0.5-21,10.3-24.9
	l59.9-23.9l-5.4-24.2l-53-27.1c-9.2-4.7-12.8-16-8.2-25.2c24.6-48.9,75-82.4,133.4-82.4s108.8,33.6,133.3,82.4
	c4.6,9.3,1,20.5-8.2,25.2l-53,27.1l-5.4,24.2l59.9,23.9c9.8,3.9,14.5,15.2,10.3,24.9c-15.2,35.5-43.8,63.9-79.5,78.8
	C299.1,394.6,286.8,387.6,284.7,376z"/>
<path class="st3" d="M171.5,234.2L171.5,234.2c-7.5,7.5-7.5,19.8,0,27.3l67.4,67.4c7.5,7.5,19.8,7.5,27.3,0l67.3-67.4
	c7.5-7.5,7.5-19.8,0-27.3l0,0c-3.6-3.6-8.5-5.7-13.7-5.7H185.1C180,228.5,175.1,230.6,171.5,234.2z"/>
<rect x="226" y="252.5" class="st4" width="53.1" height="20.5"/>
</svg>
