<?xml version="1.0" encoding="utf-8"?>
<!-- Generator: Adobe Illustrator 21.0.0, SVG Export Plug-In . SVG Version: 6.00 Build 0)  -->
<svg version="1.1" id="Layer_1" xmlns="http://www.w3.org/2000/svg" xmlns:xlink="http://www.w3.org/1999/xlink" x="0px" y="0px"
	 viewBox="0 0 504.1 504.1" style="enable-background:new 0 0 504.1 504.1;" xml:space="preserve">
<style type="text/css">
	.st0{fill:#54C092;}
	.st1{fill:#1B7D53;}
	.st2{fill:#324A5E;}
	.st3{fill:#E6E9EE;}
	.st4{fill:#ACB3BA;}
	.st5{fill:#F1543F;}
</style>
<circle class="st0" cx="252.1" cy="252.1" r="252.1"/>
<path class="st1" d="M286,501.9c24.9-3.4,64.8-12.6,105.2-39.6c0,0,62.6-41.9,95.8-121.3c3.2-7.7,5.7-16.1,5.7-16.1
	c3.5-10.9,5.9-20.6,7.6-28.4C463.2,244.8,426.1,193,389,141.2c13.2,29.2,26.3,68,9.9,85.9c-17.7,19.4-58.1,3.5-103.2-1.4
	c-46.8-5.1-113,0.2-197.7,46c13,15.7,26,31.5,38.9,47.2c24.7,30,49.3,60,74,90C236,440,261,470.9,286,501.9z"/>
<path class="st2" d="M232.4,406.1L98.1,271.8c-5.5-5.5-5.5-15,0-20.5l126.4-126.4c41.4-41.4,108.3-41.4,149.7,0l5.1,5.1
	c41.4,41.4,41.4,108.3,0,149.7L252.8,406.1C247.3,412,237.9,412,232.4,406.1z"/>
<g>
	<path class="st3" d="M266.2,143.4l94.5,94.5c2.4,2.4,2.4,5.9,0,8.3L246.9,359.6c-2.4,2.4-5.9,2.4-8.3,0l-94.5-94.5
		c-2.4-2.4-2.4-5.9,0-8.3L258,143C260.3,141,264.3,141,266.2,143.4z"/>
	<circle class="st3" cx="351.7" cy="152.4" r="17.3"/>
</g>
<path class="st4" d="M369,152c-0.4,3.5-2,7.1-4.7,9.8c-6.7,6.7-17.7,6.7-24.4,0c-3.2-3.2-5.1-7.5-5.1-11.8
	c-0.8,5.1,0.8,10.6,4.7,14.6c6.7,6.7,17.7,6.7,24.4,0C367.5,161.1,369,156.8,369,152z"/>
<path class="st5" d="M199.7,298.9l8.7-8.7c-9.8-12.2-15.4-26.4-16.5-42.9l19.3-1.6c0.8,12.6,4.3,23.2,10.2,31.5l23.6-23.6
	c-7.1-11.4-10.6-20.9-11.4-28.8s2.4-15.4,9.5-22.1c7.1-6.7,15-10.2,24.4-9.8c9.5,0.4,18.1,4.3,26.4,11.8l5.9-5.9l7.9,7.9l-5.9,5.9
	c8.3,9.5,13.8,20.9,16.1,34.3l-18.9,3.2c-1.6-9.1-5.1-17.3-10.2-24.4L266,248.5l0.4,0.4c7.1,11.4,11,21.3,11.8,29.5
	c0.8,8.3-2.8,15.8-9.5,22.8c-7.1,7.1-15.4,10.2-24.8,9.8c-9.5-0.4-18.5-4.7-27.2-12.6l-8.7,8.7L199.7,298.9z M269.4,212.3
	c-3.9-0.4-7.1,1.2-9.8,3.5c-2.8,2.8-3.9,5.5-3.9,8.7s1.6,7.9,4.7,13.8l20.9-20.9C277.3,214.3,273.3,212.7,269.4,212.3z M241.8,291.1
	c3.9,0.4,7.5-0.8,10.2-3.5c2.8-2.8,4.3-5.9,3.9-9.5c-0.4-3.5-2-8.3-5.1-14.6l-21.7,21.7C233.6,288.7,237.5,290.7,241.8,291.1z"/>
</svg>
