<?xml version="1.0" encoding="iso-8859-1"?>
<!-- Generator: Adobe Illustrator 19.0.0, SVG Export Plug-In . SVG Version: 6.00 Build 0)  -->
<svg version="1.1" id="Layer_1" xmlns="http://www.w3.org/2000/svg" xmlns:xlink="http://www.w3.org/1999/xlink" x="0px" y="0px"
	 viewBox="0 0 512 512" style="enable-background:new 0 0 512 512;" xml:space="preserve">
<path style="fill:#27467A;" d="M256,0C114.615,0,0,114.615,0,256c0,106.832,65.439,198.38,158.419,236.745l346.124-298.331
	C476.974,82.777,376.153,0,256,0z"/>
<path style="fill:#111449;" d="M504.525,194.419l-63.816-63.816l-7.575,7.575l-82.524-82.525L187.044,184.711l-54.108-54.108
	l-5.616,215.514l117.55,165.643c3.691,0.159,7.402,0.24,11.132,0.24c3.73,0,7.441-0.08,11.132-0.238l86.449-19.016
	C446.561,454.38,512,362.832,512,256C512,234.768,509.398,214.146,504.525,194.419z"/>
<path style="fill:#FF754F;" d="M372.87,145.555c0-11.677,9.471-21.148,21.148-21.148s21.148,9.471,21.148,21.148
	c0,0-0.028,26.15-0.028,26.151c0,0.055-0.091,108.14-0.091,108.14H372.87V145.555z"/>
<path style="fill:#FFB082;" d="M447.324,281.829l-0.42-136.274c0-11.677-9.471-21.148-21.148-21.148s-21.148,9.471-21.148,21.148
	v122.168L267.13,379.165v132.579c30.502-1.306,59.617-7.946,86.443-19.015v-40.38c0-4.892,1.959-12.378,4.359-16.636l85.033-137.258
	C445.357,294.197,447.324,286.712,447.324,281.829z"/>
<g>
	<path style="fill:#FF9269;" d="M398.443,252.091c-8.257-8.257-21.651-8.257-29.907,0l-82.554,82.676
		c-10.368,10.369-18.851,30.848-18.851,45.511v69.663c35.524,0,65.313-28.798,65.313-64.323V347.88
		c21.54-21.504,65.999-65.882,65.999-65.882C406.699,273.742,406.699,260.348,398.443,252.091z"/>
	<path style="fill:#FF9269;" d="M139.13,145.555c0-11.677-9.471-21.148-21.148-21.148s-21.148,9.471-21.148,21.148
		c0,0,0.028,26.15,0.027,26.151c0,0.055,0.091,108.14,0.091,108.14h42.178V145.555z"/>
</g>
<path style="fill:#FFCD9C;" d="M64.676,281.829l0.42-136.274c0-11.677,9.471-21.148,21.148-21.148s21.148,9.471,21.148,21.148
	v122.168L244.87,379.165v132.579c-30.502-1.306-59.617-7.946-86.443-19.015v-40.38c0-4.892-1.959-12.378-4.359-16.636
	L69.035,298.455C66.643,294.197,64.676,286.712,64.676,281.829z"/>
<path style="fill:#FFB082;" d="M113.557,252.091c8.257-8.257,21.651-8.257,29.907,0l82.554,82.676
	c10.368,10.368,18.851,30.848,18.851,45.51v69.663c-35.524,0-65.313-28.798-65.313-64.323v-37.739
	c-21.54-21.504-65.999-65.882-65.999-65.882C105.301,273.742,105.301,260.348,113.557,252.091z"/>
<polygon style="fill:#27467A;" points="339.478,122.435 339.478,77.913 256,77.913 244.87,100.174 256,122.435 "/>
<rect x="172.522" y="77.913" style="fill:#367596;" width="83.478" height="44.522"/>
<polygon style="fill:#27467A;" points="339.478,178.087 339.478,133.565 256,133.565 244.87,155.826 256,178.087 "/>
<rect x="172.522" y="133.565" style="fill:#367596;" width="83.478" height="44.522"/>
<g>
	<polygon style="fill:#5195AF;" points="256,55.652 244.87,72.348 256,89.043 350.609,89.043 350.609,55.652 	"/>
	<polygon style="fill:#5195AF;" points="256,111.304 244.87,128 256,144.696 350.609,144.696 350.609,111.304 	"/>
	<polygon style="fill:#5195AF;" points="256,166.957 244.87,183.652 256,200.348 350.609,200.348 350.609,166.957 	"/>
</g>
<g>
	<rect x="161.391" y="55.652" style="fill:#88ACB5;" width="94.609" height="33.391"/>
	<rect x="161.391" y="111.304" style="fill:#88ACB5;" width="94.609" height="33.391"/>
	<rect x="161.391" y="166.957" style="fill:#88ACB5;" width="94.609" height="33.391"/>
</g>
<g>
</g>
<g>
</g>
<g>
</g>
<g>
</g>
<g>
</g>
<g>
</g>
<g>
</g>
<g>
</g>
<g>
</g>
<g>
</g>
<g>
</g>
<g>
</g>
<g>
</g>
<g>
</g>
<g>
</g>
</svg>
