<?xml version="1.0" encoding="utf-8"?>
<!-- Generator: Adobe Illustrator 21.0.0, SVG Export Plug-In . SVG Version: 6.00 Build 0)  -->
<svg version="1.1" id="Layer_1" xmlns="http://www.w3.org/2000/svg" xmlns:xlink="http://www.w3.org/1999/xlink" x="0px" y="0px"
	 viewBox="0 0 512 512" style="enable-background:new 0 0 512 512;" xml:space="preserve">
<style type="text/css">
	.st0{fill:#54C092;}
	.st1{fill:#1B7D53;}
	.st2{fill:#FFEDB5;}
	.st3{fill:#FEE187;}
	.st4{fill:#FFC61B;}
	.st5{fill:#EAA22F;}
	.st6{fill:#FF5419;}
	.st7{fill:#D35933;}
	.st8{fill:#B54324;}
</style>
<circle class="st0" cx="256" cy="256" r="256"/>
<g>
	<path class="st1" d="M490.4,359L292.9,161.6L282.6,179l-78.7-78l-43.3,29.2l-5.2,14l79.6,79.6l-13.1,10.4l94.7,94.7l-1.7,1
		L282,297.1l-60.1-0.6l-75,31.7l-35.1,83.5l95.6,95.6c15.8,3,32,4.6,48.7,4.6C360.7,512,450.7,449.1,490.4,359z"/>
	<path class="st1" d="M388.1,143l-12.2,7l-33.1,39.7L496.8,343c8.7-24,13.8-49.6,14.9-76.3L388.1,143z"/>
</g>
<path class="st2" d="M401.6,278.2c-3.3-4.6-9.3-6.4-14.6-4.4c-0.1,0-0.2,0.1-0.2,0.1l-89.6,29.8c0,0.7,0,1.4,0,2.2
	c-0.7,11.4-9.6,20.6-21,21.8l-54,5.6c-3.4,0.4-6.5-2.1-6.8-5.5c-0.4-3.4,2.1-6.6,5.5-6.8l54-5.6c5.3-0.6,9.5-4.9,9.8-10.2
	c0.2-2.9-0.8-5.8-2.7-8c-1.9-2.2-4.6-3.5-7.6-3.7l-71.7-4.7c-8.1-0.5-16.1,1.3-23.1,5.1L85,345.9l25.6,51.6l23.8-20.7
	c10.1-8.8,23.5-12.6,36.7-10.4l79.4,13.2c14.6,1.9,29.1-1.7,41.1-10.2L399.7,295C404.5,290.8,405.4,283.5,401.6,278.2z"/>
<g>
	<path class="st3" d="M274.9,315.3c5.3-0.6,9.5-4.9,9.8-10.2c0.2-2.9-0.8-5.8-2.7-8c-1.9-2.2-4.6-3.5-7.6-3.7l-15.9-1V317
		L274.9,315.3z"/>
	<path class="st3" d="M401.6,278.2c-3.3-4.6-9.3-6.4-14.6-4.4c-0.1,0-0.2,0.1-0.2,0.1l-89.6,29.8c0,0.7,0,1.4,0,2.2
		c-0.7,11.4-9.6,20.6-21,21.8l-17.7,1.8v50.6c11.8-0.1,23.3-3.8,33.1-10.7L399.7,295C404.5,290.8,405.4,283.5,401.6,278.2z"/>
</g>
<circle class="st4" cx="256" cy="196.5" r="50.9"/>
<g>
	<path class="st5" d="M256,145.7C256,145.7,256,145.7,256,145.7l0,101.7c0,0,0,0,0,0c28.1,0,50.9-22.8,50.9-50.9
		S284.1,145.7,256,145.7z"/>
	<circle class="st5" cx="256" cy="196.5" r="35"/>
</g>
<path class="st6" d="M256,161.6C256,161.6,256,161.6,256,161.6l0,69.9c0,0,0,0,0,0c19.3,0,35-15.7,35-35S275.3,161.6,256,161.6z"/>
<circle class="st4" cx="180.8" cy="123.9" r="32.5"/>
<g>
	<path class="st5" d="M180.8,91.4C180.8,91.4,180.8,91.4,180.8,91.4l0,65.1c0,0,0,0,0,0c18,0,32.5-14.6,32.5-32.5
		S198.8,91.4,180.8,91.4z"/>
	<circle class="st5" cx="180.8" cy="123.9" r="22.4"/>
</g>
<path class="st6" d="M180.8,101.5C180.8,101.5,180.8,101.5,180.8,101.5l0,44.7c0,0,0,0,0,0c12.4,0,22.4-10,22.4-22.4
	S193.1,101.5,180.8,101.5z"/>
<circle class="st4" cx="365.7" cy="166.6" r="32.5"/>
<g>
	<path class="st5" d="M365.7,134C365.7,134,365.7,134,365.7,134l0,65.1c0,0,0,0,0,0c18,0,32.5-14.6,32.5-32.5S383.7,134,365.7,134z"
		/>
	<circle class="st5" cx="365.7" cy="166.6" r="22.4"/>
</g>
<path class="st6" d="M365.7,144.2C365.7,144.2,365.7,144.2,365.7,144.2l0,44.7c0,0,0,0,0,0c12.4,0,22.4-10,22.4-22.4
	C388.1,154.2,378,144.2,365.7,144.2z"/>
<rect x="84.9" y="325" transform="matrix(0.8256 -0.5643 0.5643 0.8256 -188.5226 122.9479)" class="st7" width="39.4" height="82.9"/>
<polygon class="st8" points="144.3,389.5 120.1,354.1 87.8,376.8 111.7,411.8 "/>
</svg>
