<?xml version="1.0" encoding="utf-8"?>
<!-- Generator: Adobe Illustrator 21.0.0, SVG Export Plug-In . SVG Version: 6.00 Build 0)  -->
<svg version="1.1" id="Layer_1" xmlns="http://www.w3.org/2000/svg" xmlns:xlink="http://www.w3.org/1999/xlink" x="0px" y="0px"
	 viewBox="0 0 512 512" style="enable-background:new 0 0 512 512;" xml:space="preserve">
<style type="text/css">
	.st0{fill:#54C092;}
	.st1{fill:#1B7D53;}
	.st2{fill:#FFEDB5;}
	.st3{fill:#FEE187;}
	.st4{fill:#FFC61B;}
	.st5{fill:#EAA22F;}
	.st6{fill:#D35933;}
	.st7{fill:#B54324;}
</style>
<circle class="st0" cx="256" cy="256" r="256"/>
<path class="st1" d="M498.1,339.3L316.5,157.7l-12,4.5L256,113.8l-26.1,75.9l-11.2,39.2L319,329.2l-2.5,2.5L282,297.1l-70,2.3H175
	L114,411.8l96.1,96.1c14.9,2.7,30.2,4.1,45.8,4.1C368.2,512,463.5,439.8,498.1,339.3z"/>
<path class="st2" d="M401.6,278.2c-3.3-4.6-9.3-6.4-14.6-4.4c-0.1,0-0.2,0.1-0.2,0.1l-89.6,29.8c0,0.7,0,1.4,0,2.2
	c-0.7,11.4-9.6,20.6-21,21.8l-54,5.6c-3.4,0.4-6.5-2.1-6.8-5.5c-0.4-3.4,2.1-6.6,5.5-6.8l54-5.6c5.3-0.6,9.5-4.9,9.8-10.2
	c0.2-2.9-0.8-5.8-2.7-8c-1.9-2.2-4.6-3.5-7.6-3.7l-71.7-4.7c-8.1-0.5-16.1,1.3-23.1,5.1L85,345.9l25.6,51.6l23.8-20.7
	c10.1-8.8,23.5-12.6,36.7-10.4l79.4,13.2c14.6,1.9,29.1-1.7,41.1-10.2L399.7,295C404.5,290.8,405.4,283.5,401.6,278.2z"/>
<g>
	<path class="st3" d="M274.9,315.3c5.3-0.6,9.5-4.9,9.8-10.2c0.2-2.9-0.8-5.8-2.7-8c-1.9-2.2-4.6-3.5-7.6-3.7l-15.9-1V317
		L274.9,315.3z"/>
	<path class="st3" d="M401.6,278.2c-3.3-4.6-9.3-6.4-14.6-4.4c-0.1,0-0.2,0.1-0.2,0.1l-89.6,29.8c0,0.7,0,1.4,0,2.2
		c-0.7,11.4-9.6,20.6-21,21.8l-17.7,1.8v50.6c11.8-0.1,23.3-3.8,33.1-10.7L399.7,295C404.5,290.8,405.4,283.5,401.6,278.2z"/>
</g>
<polygon class="st4" points="256,113.8 277.3,148.1 316.5,157.7 290.4,188.6 293.4,228.8 256,213.6 218.6,228.8 221.6,188.6 
	195.5,157.7 234.7,148.1 "/>
<polygon class="st5" points="256,113.8 277.3,148.1 316.5,157.7 290.4,188.6 293.4,228.8 256,213.6 "/>
<rect x="88.9" y="330.5" transform="matrix(0.8256 -0.5643 0.5643 0.8256 -189.2358 125.656)" class="st6" width="39.4" height="76.8"/>
<polygon class="st7" points="146.6,389.5 124.9,357.9 92.3,380 114,411.8 "/>
</svg>
