<svg id="Слой_1" data-name="Слой 1" xmlns="http://www.w3.org/2000/svg" viewBox="0 0 199.65 199.79"><defs><style>.cls-1{fill:#54c092;}</style></defs><title>arrow</title><path class="cls-1" d="M342.18,147.5c-56-.6-101.93,46.29-100.89,101.79,1,53.94,46.07,98.34,100.44,98,53.61-.34,97.68-44.06,99.15-97.11C442.41,195.25,397.77,148.1,342.18,147.5ZM345.31,335c-48.46,2.32-91.18-36.86-91.92-86.12-.71-47.62,38.07-87.71,85.67-88.79,49-1.11,89.89,39.45,89.69,87.9C428.55,294.06,391.16,332.76,345.31,335Z" transform="translate(-241.28 -147.49)"/><path class="cls-1" d="M341.74,222.51l-51.31,48.64a6.09,6.09,0,0,1-8-1.78,6,6,0,0,1,.45-6.69L341.74,206l57.56,55.78a6,6,0,0,1-8,8Z" transform="translate(-241.28 -147.49)"/></svg>