<?xml version="1.0" encoding="utf-8"?>
<!-- Generator: Adobe Illustrator 21.0.0, SVG Export Plug-In . SVG Version: 6.00 Build 0)  -->
<svg version="1.1" id="Layer_1" xmlns="http://www.w3.org/2000/svg" xmlns:xlink="http://www.w3.org/1999/xlink" x="0px" y="0px"
	 viewBox="0 0 496 496" style="enable-background:new 0 0 496 496;" xml:space="preserve">
<style type="text/css">
	.st0{fill:#FFFFFF;}
	.st1{fill:#B2AFB0;}
	.st2{fill:#E5E5E5;}
</style>
<path class="st0" d="M496,248c0,136.8-111.2,248-248,248S0,384.8,0,248S111.2,0,248,0S496,111.2,496,248z"/>
<path class="st1" d="M248,0c136.8,0,248,111.2,248,248S384.8,496,248,496"/>
<path class="st2" d="M72.8,72.8c96.8-96.8,253.6-96.8,350.4,0s96.8,253.6,0,350.4"/>
<g>
	<path d="M321.6,333.6c-3.2,0-5.6-0.8-8-3.2l-148-148c-4.8-4.8-4.8-12,0-16.8s12-4.8,16.8,0l148,148c4.8,4.8,4.8,12,0,16.8
		C328,332.8,324.8,333.6,321.6,333.6z"/>
	<path d="M174.4,333.6c-3.2,0-5.6-0.8-8-3.2c-4.8-4.8-4.8-12,0-16.8l148-148c4.8-4.8,12-4.8,16.8,0s4.8,12,0,16.8l-148.8,148
		C180,332.8,176.8,333.6,174.4,333.6z"/>
</g>
</svg>
